<?xml version="1.0" encoding="UTF-8" standalone="no"?>
<svg
   xmlns:dc="http://purl.org/dc/elements/1.1/"
   xmlns:cc="http://creativecommons.org/ns#"
   xmlns:rdf="http://www.w3.org/1999/02/22-rdf-syntax-ns#"
   xmlns:svg="http://www.w3.org/2000/svg"
   xmlns="http://www.w3.org/2000/svg"
   xmlns:sodipodi="http://sodipodi.sourceforge.net/DTD/sodipodi-0.dtd"
   xmlns:inkscape="http://www.inkscape.org/namespaces/inkscape"
   width="309.31683mm"
   height="182.50885mm"
   viewBox="0 0 309.31683 182.50885"
   version="1.1"
   id="svg8"
   sodipodi:docname="brrrr-logo.svg"
   inkscape:export-filename="/Users/thauck/brrr-logo.png"
   inkscape:export-xdpi="96"
   inkscape:export-ydpi="96"
   inkscape:version="1.0.1 (c497b03c, 2020-09-10)">
  <defs
     id="defs2">
    <clipPath
       id="clipPath6178">
      <rect
         style="fill:#f9f9f9;stroke-width:0.403;stroke-linejoin:round;stroke-dasharray:0.806, 0.403;paint-order:markers fill stroke"
         width="89.783775"
         height="69.230865"
         x="86.178009"
         y="87.980896"
         id="rect857" />
    </clipPath>
  </defs>
  <sodipodi:namedview
     id="base"
     pagecolor="#ffffff"
     bordercolor="#666666"
     borderopacity="1.0"
     inkscape:pageopacity="0.0"
     inkscape:pageshadow="2"
     inkscape:zoom="0.52774328"
     inkscape:cx="383.48983"
     inkscape:cy="294.52628"
     inkscape:document-units="mm"
     inkscape:current-layer="layer1"
     inkscape:document-rotation="0"
     showgrid="false"
     inkscape:window-width="1680"
     inkscape:window-height="979"
     inkscape:window-x="0"
     inkscape:window-y="25"
     inkscape:window-maximized="0"
     inkscape:snap-bbox="false"
     inkscape:snap-grids="true"
     inkscape:snap-to-guides="false">
    <inkscape:grid
       type="xygrid"
       id="grid870"
       originx="-14.889541"
       originy="-29.156577" />
  </sodipodi:namedview>
  <metadata
     id="metadata5">
    <rdf:RDF>
      <cc:Work
         rdf:about="">
        <dc:format>image/svg+xml</dc:format>
        <dc:type
           rdf:resource="http://purl.org/dc/dcmitype/StillImage" />
        <dc:title />
      </cc:Work>
    </rdf:RDF>
  </metadata>
  <g
     inkscape:label="Layer 1"
     inkscape:groupmode="layer"
     id="layer1"
     transform="translate(-14.88954,-29.15658)">
    <text
       xml:space="preserve"
       style="font-style:normal;font-variant:normal;font-weight:normal;font-stretch:normal;font-size:66.2005px;line-height:1.25;font-family:'Cascadia Mono PL';-inkscape-font-specification:'Cascadia Mono PL, @wght=300';font-variant-ligatures:normal;font-variant-caps:normal;font-variant-numeric:normal;font-variant-east-asian:normal;font-variation-settings:'wght' 300;stroke-width:1.55157"
       x="18.64637"
       y="78.856293"
       id="text1869"
       inkscape:export-xdpi="249.98619"
       inkscape:export-ydpi="249.98619"
       transform="scale(1.0416036,0.96005814)"><tspan
         sodipodi:role="line"
         id="tspan1867"
         x="18.64637"
         y="78.856293"
         style="font-style:normal;font-variant:normal;font-weight:normal;font-stretch:normal;font-size:66.2005px;font-family:'Cascadia Mono PL';-inkscape-font-specification:'Cascadia Mono PL, @wght=300';font-variant-ligatures:normal;font-variant-caps:normal;font-variant-numeric:normal;font-variant-east-asian:normal;font-variation-settings:'wght' 300;stroke-width:1.55157">b</tspan></text>
    <text
       xml:space="preserve"
       style="font-style:normal;font-variant:normal;font-weight:normal;font-stretch:normal;font-size:66.2005px;line-height:1.25;font-family:'Cascadia Mono PL';-inkscape-font-specification:'Cascadia Mono PL, @wght=300';font-variant-ligatures:normal;font-variant-caps:normal;font-variant-numeric:normal;font-variant-east-asian:normal;font-variation-settings:'wght' 300;stroke-width:1.55157"
       x="81.533096"
       y="79.502769"
       id="text1869-2"
       inkscape:export-xdpi="249.98619"
       inkscape:export-ydpi="249.98619"
       transform="scale(1.0416036,0.96005814)"><tspan
         sodipodi:role="line"
         id="tspan1867-0"
         x="81.533096"
         y="79.502769"
         style="font-style:normal;font-variant:normal;font-weight:normal;font-stretch:normal;font-size:66.2005px;font-family:'Cascadia Mono PL';-inkscape-font-specification:'Cascadia Mono PL, @wght=300';font-variant-ligatures:normal;font-variant-caps:normal;font-variant-numeric:normal;font-variant-east-asian:normal;font-variation-settings:'wght' 300;stroke-width:1.55157">r</tspan></text>
    <text
       xml:space="preserve"
       style="font-style:normal;font-variant:normal;font-weight:normal;font-stretch:normal;font-size:66.2005px;line-height:1.25;font-family:'Cascadia Mono PL';-inkscape-font-specification:'Cascadia Mono PL, @wght=300';font-variant-ligatures:normal;font-variant-caps:normal;font-variant-numeric:normal;font-variant-east-asian:normal;font-variation-settings:'wght' 300;stroke-width:1.55157"
       x="143.77325"
       y="79.502769"
       id="text1869-2-8"
       inkscape:export-xdpi="249.98619"
       inkscape:export-ydpi="249.98619"
       transform="scale(1.0416036,0.96005814)"><tspan
         sodipodi:role="line"
         id="tspan1867-0-3"
         x="143.77325"
         y="79.502769"
         style="font-style:normal;font-variant:normal;font-weight:normal;font-stretch:normal;font-size:66.2005px;font-family:'Cascadia Mono PL';-inkscape-font-specification:'Cascadia Mono PL, @wght=300';font-variant-ligatures:normal;font-variant-caps:normal;font-variant-numeric:normal;font-variant-east-asian:normal;font-variation-settings:'wght' 300;stroke-width:1.55157">r</tspan></text>
    <text
       xml:space="preserve"
       style="font-style:normal;font-variant:normal;font-weight:normal;font-stretch:normal;font-size:66.2005px;line-height:1.25;font-family:'Cascadia Mono PL';-inkscape-font-specification:'Cascadia Mono PL, @wght=300';font-variant-ligatures:normal;font-variant-caps:normal;font-variant-numeric:normal;font-variant-east-asian:normal;font-variation-settings:'wght' 300;stroke-width:1.55157"
       x="206.01353"
       y="79.502769"
       id="text1869-2-0"
       inkscape:export-xdpi="249.98619"
       inkscape:export-ydpi="249.98619"
       transform="scale(1.0416036,0.96005814)"><tspan
         sodipodi:role="line"
         id="tspan1867-0-5"
         x="206.01353"
         y="79.502769"
         style="font-style:normal;font-variant:normal;font-weight:normal;font-stretch:normal;font-size:66.2005px;font-family:'Cascadia Mono PL';-inkscape-font-specification:'Cascadia Mono PL, @wght=300';font-variant-ligatures:normal;font-variant-caps:normal;font-variant-numeric:normal;font-variant-east-asian:normal;font-variation-settings:'wght' 300;stroke-width:1.55157">r</tspan></text>
    <text
       xml:space="preserve"
       style="font-style:normal;font-variant:normal;font-weight:normal;font-stretch:normal;font-size:66.2005px;line-height:1.25;font-family:'Cascadia Mono PL';-inkscape-font-specification:'Cascadia Mono PL, @wght=300';font-variant-ligatures:normal;font-variant-caps:normal;font-variant-numeric:normal;font-variant-east-asian:normal;font-variation-settings:'wght' 300;stroke-width:1.55157"
       x="268.25381"
       y="79.502769"
       id="text1869-2-1"
       inkscape:export-xdpi="249.98619"
       inkscape:export-ydpi="249.98619"
       transform="scale(1.0416036,0.96005814)"><tspan
         sodipodi:role="line"
         id="tspan1867-0-50"
         x="268.25381"
         y="79.502769"
         style="font-style:normal;font-variant:normal;font-weight:normal;font-stretch:normal;font-size:66.2005px;font-family:'Cascadia Mono PL';-inkscape-font-specification:'Cascadia Mono PL, @wght=300';font-variant-ligatures:normal;font-variant-caps:normal;font-variant-numeric:normal;font-variant-east-asian:normal;font-variation-settings:'wght' 300;stroke-width:1.55157">r</tspan></text>
    <g
       id="g2329"
       style="fill:#d5e5ff"
       inkscape:export-xdpi="249.98619"
       inkscape:export-ydpi="249.98619"
       transform="matrix(6.1082024,0,0,5.6300012,-428.73776,-1002.3644)">
      <path
         style="fill:#d5e5ff;stroke:#000000;stroke-width:0.264583px;stroke-linecap:butt;stroke-linejoin:miter;stroke-opacity:1"
         d="m 80.7695,207.65863 -0.01303,-2.6458 c -0.01306,-2.65128 -7.956953,-3.9296 -7.96347,-5.2525 l 0.01303,2.6458 c 0.0065,1.3229 7.950437,2.6067 7.96347,5.2525 z"
         id="path876-02-6"
         sodipodi:nodetypes="ccccc" />
      <path
         style="fill:#d5e5ff;stroke:#000000;stroke-width:0.264583px;stroke-linecap:butt;stroke-linejoin:miter;stroke-opacity:1"
         d="m 80.802084,214.27314 -0.01303,-2.6458 c -0.01306,-2.65129 -7.956953,-3.9296 -7.96347,-5.2525 l 0.01303,2.6458 c 0.0065,1.3229 7.950437,2.6067 7.96347,5.2525 z"
         id="path876-02-9"
         sodipodi:nodetypes="ccccc" />
      <path
         style="fill:#d5e5ff;stroke:#000000;stroke-width:0.264583px;stroke-linecap:butt;stroke-linejoin:miter;stroke-opacity:1"
         d="m 80.736917,201.04413 -0.01303,-2.6458 c -0.01306,-2.65128 -7.956954,-3.9296 -7.96347,-5.2525 l 0.01303,2.6458 c 0.0065,1.3229 7.950437,2.6067 7.96347,5.2525 z"
         id="path876-02-6-6"
         sodipodi:nodetypes="ccccc" />
      <path
         style="fill:#d5e5ff;stroke:#000000;stroke-width:0.264583px;stroke-linecap:butt;stroke-linejoin:miter;stroke-opacity:1"
         d="m 91.352833,207.65863 -0.01303,-2.6458 c -0.01306,-2.65128 -7.956953,-3.9296 -7.96347,-5.2525 l 0.01303,2.6458 c 0.0065,1.3229 7.950437,2.6067 7.96347,5.2525 z"
         id="path876-02-6-5"
         sodipodi:nodetypes="ccccc" />
      <path
         style="fill:#d5e5ff;stroke:#000000;stroke-width:0.264583px;stroke-linecap:butt;stroke-linejoin:miter;stroke-opacity:1"
         d="m 91.385417,214.27314 -0.01303,-2.6458 c -0.01306,-2.65129 -7.956953,-3.9296 -7.96347,-5.2525 l 0.01303,2.6458 c 0.0065,1.3229 7.950437,2.6067 7.96347,5.2525 z"
         id="path876-02-9-2"
         sodipodi:nodetypes="ccccc" />
      <path
         style="fill:#d5e5ff;stroke:#000000;stroke-width:0.264583px;stroke-linecap:butt;stroke-linejoin:miter;stroke-opacity:1"
         d="m 91.32025,201.04413 -0.01303,-2.6458 c -0.01306,-2.65128 -7.956954,-3.9296 -7.96347,-5.2525 l 0.01303,2.6458 c 0.0065,1.3229 7.950437,2.6067 7.96347,5.2525 z"
         id="path876-02-6-6-8"
         sodipodi:nodetypes="ccccc" />
      <path
         style="fill:#d5e5ff;stroke:#000000;stroke-width:0.264583px;stroke-linecap:butt;stroke-linejoin:miter;stroke-opacity:1"
         d="m 101.93617,207.65863 -0.013,-2.6458 c -0.0131,-2.65128 -7.956957,-3.9296 -7.963474,-5.2525 l 0.01303,2.6458 c 0.0065,1.3229 7.950434,2.6067 7.963474,5.2525 z"
         id="path876-02-6-5-8"
         sodipodi:nodetypes="ccccc" />
      <path
         style="fill:#d5e5ff;stroke:#000000;stroke-width:0.264583px;stroke-linecap:butt;stroke-linejoin:miter;stroke-opacity:1"
         d="m 101.96875,214.27314 -0.013,-2.6458 c -0.0131,-2.65129 -7.956953,-3.9296 -7.96347,-5.2525 l 0.01303,2.6458 c 0.0065,1.3229 7.95044,2.6067 7.96347,5.2525 z"
         id="path876-02-9-2-1"
         sodipodi:nodetypes="ccccc" />
      <path
         style="fill:#d5e5ff;stroke:#000000;stroke-width:0.264583px;stroke-linecap:butt;stroke-linejoin:miter;stroke-opacity:1"
         d="m 101.90358,201.04413 -0.013,-2.6458 c -0.0131,-2.65128 -7.956951,-3.9296 -7.963467,-5.2525 l 0.01303,2.6458 c 0.0065,1.3229 7.950437,2.6067 7.963467,5.2525 z"
         id="path876-02-6-6-8-5"
         sodipodi:nodetypes="ccccc" />
      <path
         style="fill:#d5e5ff;stroke:#000000;stroke-width:0.264583px;stroke-linecap:butt;stroke-linejoin:miter;stroke-opacity:1"
         d="m 112.5195,207.65863 -0.013,-2.6458 c -0.0131,-2.65128 -7.95695,-3.9296 -7.96347,-5.2525 l 0.013,2.6458 c 0.006,1.3229 7.95044,2.6067 7.96347,5.2525 z"
         id="path876-02-6-5-8-1"
         sodipodi:nodetypes="ccccc" />
      <path
         style="fill:#d5e5ff;stroke:#000000;stroke-width:0.264583px;stroke-linecap:butt;stroke-linejoin:miter;stroke-opacity:1"
         d="m 112.55208,214.27314 -0.013,-2.6458 c -0.0131,-2.65129 -7.95695,-3.9296 -7.96347,-5.2525 l 0.013,2.6458 c 0.007,1.3229 7.95044,2.6067 7.96347,5.2525 z"
         id="path876-02-9-2-1-3"
         sodipodi:nodetypes="ccccc" />
      <path
         style="fill:#d5e5ff;stroke:#000000;stroke-width:0.264583px;stroke-linecap:butt;stroke-linejoin:miter;stroke-opacity:1"
         d="m 112.48692,201.04413 -0.013,-2.6458 c -0.0131,-2.65128 -7.95696,-3.9296 -7.96347,-5.2525 l 0.013,2.6458 c 0.007,1.3229 7.95043,2.6067 7.96347,5.2525 z"
         id="path876-02-6-6-8-5-6"
         sodipodi:nodetypes="ccccc" />
      <path
         style="fill:#d5e5ff;stroke:#000000;stroke-width:0.264583px;stroke-linecap:butt;stroke-linejoin:miter;stroke-opacity:1"
         d="m 123.10283,207.65863 -0.013,-2.6458 c -0.0131,-2.65128 -7.95695,-3.9296 -7.96347,-5.2525 l 0.013,2.6458 c 0.007,1.3229 7.95044,2.6067 7.96347,5.2525 z"
         id="path876-02-6-5-8-1-4"
         sodipodi:nodetypes="ccccc" />
      <path
         style="fill:#d5e5ff;stroke:#000000;stroke-width:0.264583px;stroke-linecap:butt;stroke-linejoin:miter;stroke-opacity:1"
         d="m 123.13542,214.27314 -0.013,-2.6458 c -0.0131,-2.65129 -7.95696,-3.9296 -7.96347,-5.2525 l 0.013,2.6458 c 0.007,1.3229 7.95043,2.6067 7.96347,5.2525 z"
         id="path876-02-9-2-1-3-1"
         sodipodi:nodetypes="ccccc" />
      <path
         style="fill:#d5e5ff;stroke:#000000;stroke-width:0.264583px;stroke-linecap:butt;stroke-linejoin:miter;stroke-opacity:1"
         d="m 123.07025,201.04413 -0.013,-2.6458 c -0.0131,-2.65128 -7.95695,-3.9296 -7.96347,-5.2525 l 0.013,2.6458 c 0.007,1.3229 7.95044,2.6067 7.96347,5.2525 z"
         id="path876-02-6-6-8-5-6-4"
         sodipodi:nodetypes="ccccc" />
    </g>
    <g
       id="g2312"
       style="fill:#aaccff"
       inkscape:export-xdpi="249.98619"
       inkscape:export-ydpi="249.98619"
       transform="matrix(6.1082024,0,0,5.6300012,-428.53875,-965.1247)">
      <path
         style="fill:#aaccff;stroke:#000000;stroke-width:0.264583px;stroke-linecap:butt;stroke-linejoin:miter;stroke-opacity:1"
         d="m 80.704334,194.42963 0.01303,2.6458 c 0.01306,2.65129 -7.917853,4.0078 -7.911337,5.3307 l -0.01303,-2.6458 c -0.0065,-1.3229 7.92437,-2.6849 7.911337,-5.3307 z"
         id="path876-02-4-0"
         sodipodi:nodetypes="ccccc" />
      <path
         style="fill:#aaccff;stroke:#000000;stroke-width:0.264583px;stroke-linecap:butt;stroke-linejoin:miter;stroke-opacity:1"
         d="m 80.736917,201.04413 0.01303,2.6458 c 0.01306,2.65129 -7.917854,4.00781 -7.911338,5.33071 l -0.01303,-2.6458 c -0.0065,-1.3229 7.924371,-2.68491 7.911338,-5.33071 z"
         id="path876-02-4-04"
         sodipodi:nodetypes="ccccc" />
      <path
         style="fill:#aaccff;stroke:#000000;stroke-width:0.264583px;stroke-linecap:butt;stroke-linejoin:miter;stroke-opacity:1"
         d="m 80.671751,187.81513 0.01303,2.6458 c 0.01306,2.65128 -7.917854,4.0078 -7.911337,5.3307 l -0.01303,-2.6458 c -0.0065,-1.3229 7.92437,-2.6849 7.911337,-5.3307 z"
         id="path876-02-4-0-5"
         sodipodi:nodetypes="ccccc" />
      <path
         style="fill:#aaccff;stroke:#000000;stroke-width:0.264583px;stroke-linecap:butt;stroke-linejoin:miter;stroke-opacity:1"
         d="m 91.287667,194.42963 0.01303,2.6458 c 0.01306,2.65129 -7.917853,4.0078 -7.911337,5.3307 l -0.01303,-2.6458 c -0.0065,-1.3229 7.92437,-2.6849 7.911337,-5.3307 z"
         id="path876-02-4-0-4"
         sodipodi:nodetypes="ccccc" />
      <path
         style="fill:#aaccff;stroke:#000000;stroke-width:0.264583px;stroke-linecap:butt;stroke-linejoin:miter;stroke-opacity:1"
         d="m 91.32025,201.04413 0.01303,2.6458 c 0.01306,2.65129 -7.917854,4.00781 -7.911338,5.33071 l -0.01303,-2.6458 c -0.0065,-1.3229 7.924371,-2.68491 7.911338,-5.33071 z"
         id="path876-02-4-04-2"
         sodipodi:nodetypes="ccccc" />
      <path
         style="fill:#aaccff;stroke:#000000;stroke-width:0.264583px;stroke-linecap:butt;stroke-linejoin:miter;stroke-opacity:1"
         d="m 91.255084,187.81513 0.01303,2.6458 c 0.01306,2.65128 -7.917854,4.0078 -7.911337,5.3307 l -0.01303,-2.6458 c -0.0065,-1.3229 7.92437,-2.6849 7.911337,-5.3307 z"
         id="path876-02-4-0-5-7"
         sodipodi:nodetypes="ccccc" />
      <path
         style="fill:#aaccff;stroke:#000000;stroke-width:0.264583px;stroke-linecap:butt;stroke-linejoin:miter;stroke-opacity:1"
         d="m 101.871,194.42963 0.013,2.6458 c 0.0131,2.65129 -7.917853,4.0078 -7.911337,5.3307 l -0.01303,-2.6458 c -0.0065,-1.3229 7.924367,-2.6849 7.911337,-5.3307 z"
         id="path876-02-4-0-4-0"
         sodipodi:nodetypes="ccccc" />
      <path
         style="fill:#aaccff;stroke:#000000;stroke-width:0.264583px;stroke-linecap:butt;stroke-linejoin:miter;stroke-opacity:1"
         d="m 101.90358,201.04413 0.013,2.6458 c 0.0131,2.65129 -7.917851,4.00781 -7.911335,5.33071 l -0.01303,-2.6458 c -0.0065,-1.3229 7.924375,-2.68491 7.911335,-5.33071 z"
         id="path876-02-4-04-2-5"
         sodipodi:nodetypes="ccccc" />
      <path
         style="fill:#aaccff;stroke:#000000;stroke-width:0.264583px;stroke-linecap:butt;stroke-linejoin:miter;stroke-opacity:1"
         d="m 101.83842,187.81513 0.013,2.6458 c 0.0131,2.65128 -7.917857,4.0078 -7.91134,5.3307 l -0.01303,-2.6458 c -0.0065,-1.3229 7.92437,-2.6849 7.91134,-5.3307 z"
         id="path876-02-4-0-5-7-6"
         sodipodi:nodetypes="ccccc" />
      <path
         style="fill:#aaccff;stroke:#000000;stroke-width:0.264583px;stroke-linecap:butt;stroke-linejoin:miter;stroke-opacity:1"
         d="m 112.45433,194.42963 0.013,2.6458 c 0.0131,2.65129 -7.91785,4.0078 -7.91133,5.3307 l -0.013,-2.6458 c -0.007,-1.3229 7.92437,-2.6849 7.91133,-5.3307 z"
         id="path876-02-4-0-4-0-8"
         sodipodi:nodetypes="ccccc" />
      <path
         style="fill:#aaccff;stroke:#000000;stroke-width:0.264583px;stroke-linecap:butt;stroke-linejoin:miter;stroke-opacity:1"
         d="m 112.48692,201.04413 0.013,2.6458 c 0.0131,2.65129 -7.91786,4.00781 -7.91134,5.33071 l -0.013,-2.6458 c -0.007,-1.3229 7.92437,-2.68491 7.91134,-5.33071 z"
         id="path876-02-4-04-2-5-6"
         sodipodi:nodetypes="ccccc" />
      <path
         style="fill:#aaccff;stroke:#000000;stroke-width:0.264583px;stroke-linecap:butt;stroke-linejoin:miter;stroke-opacity:1"
         d="m 112.42175,187.81513 0.013,2.6458 c 0.0131,2.65128 -7.91785,4.0078 -7.91134,5.3307 l -0.013,-2.6458 c -0.006,-1.3229 7.92437,-2.6849 7.91134,-5.3307 z"
         id="path876-02-4-0-5-7-6-2"
         sodipodi:nodetypes="ccccc" />
      <path
         style="fill:#aaccff;stroke:#000000;stroke-width:0.264583px;stroke-linecap:butt;stroke-linejoin:miter;stroke-opacity:1"
         d="m 123.03767,194.42963 0.013,2.6458 c 0.0131,2.65129 -7.91786,4.0078 -7.91134,5.3307 l -0.013,-2.6458 c -0.007,-1.3229 7.92437,-2.6849 7.91134,-5.3307 z"
         id="path876-02-4-0-4-0-8-2"
         sodipodi:nodetypes="ccccc" />
      <path
         style="fill:#aaccff;stroke:#000000;stroke-width:0.264583px;stroke-linecap:butt;stroke-linejoin:miter;stroke-opacity:1"
         d="m 123.07025,201.04413 0.013,2.6458 c 0.0131,2.65129 -7.91785,4.00781 -7.91134,5.33071 l -0.013,-2.6458 c -0.007,-1.3229 7.92437,-2.68491 7.91134,-5.33071 z"
         id="path876-02-4-04-2-5-6-3"
         sodipodi:nodetypes="ccccc" />
      <path
         style="fill:#aaccff;stroke:#000000;stroke-width:0.264583px;stroke-linecap:butt;stroke-linejoin:miter;stroke-opacity:1"
         d="m 123.00508,187.81513 0.013,2.6458 c 0.0131,2.65128 -7.91785,4.0078 -7.91133,5.3307 l -0.013,-2.6458 c -0.007,-1.3229 7.92437,-2.6849 7.91133,-5.3307 z"
         id="path876-02-4-0-5-7-6-2-6"
         sodipodi:nodetypes="ccccc" />
    </g>
  </g>
</svg>
